<svg xmlns="http://www.w3.org/2000/svg" xmlns:xlink="http://www.w3.org/1999/xlink" width="100" zoomAndPan="magnify" viewBox="0 0 75 37.5" height="50" preserveAspectRatio="xMidYMid meet" version="1.0"><defs><filter x="0%" y="0%" width="100%" height="100%" id="f23d50529d"><feColorMatrix values="0 0 0 0 1 0 0 0 0 1 0 0 0 0 1 0 0 0 1 0" color-interpolation-filters="sRGB"/></filter><g/><clipPath id="be40e6d802"><path d="M 0.492188 8 L 74 8 L 74 37.007812 L 0.492188 37.007812 Z M 0.492188 8 " clip-rule="nonzero"/></clipPath><clipPath id="49a46ea5a5"><path d="M 62 6 L 73.914062 6 L 73.914062 24 L 62 24 Z M 62 6 " clip-rule="nonzero"/></clipPath><clipPath id="4af52ce1d7"><rect x="0" width="74" y="0" height="30"/></clipPath><clipPath id="5a476e356e"><path d="M 54.707031 7.585938 L 65.8125 7.585938 L 65.8125 14.914062 L 54.707031 14.914062 Z M 54.707031 7.585938 " clip-rule="nonzero"/></clipPath><clipPath id="348c6c04f4"><path d="M 55.449219 7.585938 L 65.070312 7.585938 C 65.265625 7.585938 65.453125 7.664062 65.59375 7.804688 C 65.730469 7.941406 65.808594 8.128906 65.808594 8.328125 L 65.808594 14.171875 C 65.808594 14.371094 65.730469 14.558594 65.59375 14.695312 C 65.453125 14.835938 65.265625 14.914062 65.070312 14.914062 L 55.449219 14.914062 C 55.25 14.914062 55.0625 14.835938 54.925781 14.695312 C 54.785156 14.558594 54.707031 14.371094 54.707031 14.171875 L 54.707031 8.328125 C 54.707031 8.128906 54.785156 7.941406 54.925781 7.804688 C 55.0625 7.664062 55.25 7.585938 55.449219 7.585938 Z M 55.449219 7.585938 " clip-rule="nonzero"/></clipPath><clipPath id="208cf94bb9"><path d="M 0.707031 0.585938 L 11.8125 0.585938 L 11.8125 7.914062 L 0.707031 7.914062 Z M 0.707031 0.585938 " clip-rule="nonzero"/></clipPath><clipPath id="aab2457347"><path d="M 1.449219 0.585938 L 11.070312 0.585938 C 11.265625 0.585938 11.453125 0.664062 11.59375 0.804688 C 11.730469 0.941406 11.808594 1.128906 11.808594 1.328125 L 11.808594 7.171875 C 11.808594 7.371094 11.730469 7.558594 11.59375 7.695312 C 11.453125 7.835938 11.265625 7.914062 11.070312 7.914062 L 1.449219 7.914062 C 1.25 7.914062 1.0625 7.835938 0.925781 7.695312 C 0.785156 7.558594 0.707031 7.371094 0.707031 7.171875 L 0.707031 1.328125 C 0.707031 1.128906 0.785156 0.941406 0.925781 0.804688 C 1.0625 0.664062 1.25 0.585938 1.449219 0.585938 Z M 1.449219 0.585938 " clip-rule="nonzero"/></clipPath><clipPath id="2e46d555fb"><rect x="0" width="12" y="0" height="8"/></clipPath><clipPath id="57d6547319"><path d="M 56.867188 5.832031 L 62.734375 5.832031 L 62.734375 14.300781 L 56.867188 14.300781 Z M 56.867188 5.832031 " clip-rule="nonzero"/></clipPath><clipPath id="b0a85095ef"><path d="M 56.890625 13.539062 L 56.890625 6.582031 C 56.890625 6.382812 56.96875 6.195312 57.109375 6.058594 C 57.246094 5.917969 57.433594 5.839844 57.632812 5.839844 L 61.996094 5.839844 C 62.191406 5.839844 62.378906 5.917969 62.519531 6.058594 C 62.65625 6.195312 62.734375 6.382812 62.734375 6.582031 L 62.734375 13.539062 C 62.734375 13.734375 62.65625 13.921875 62.519531 14.0625 C 62.378906 14.199219 62.191406 14.277344 61.996094 14.277344 L 57.632812 14.277344 C 57.433594 14.277344 57.246094 14.199219 57.109375 14.0625 C 56.96875 13.921875 56.890625 13.734375 56.890625 13.539062 Z M 56.890625 13.539062 " clip-rule="nonzero"/></clipPath><clipPath id="1388551189"><path d="M 0.867188 0.832031 L 6.734375 0.832031 L 6.734375 9.300781 L 0.867188 9.300781 Z M 0.867188 0.832031 " clip-rule="nonzero"/></clipPath><clipPath id="72dfa0858d"><path d="M 0.890625 8.539062 L 0.890625 1.582031 C 0.890625 1.382812 0.96875 1.195312 1.109375 1.058594 C 1.246094 0.917969 1.433594 0.839844 1.632812 0.839844 L 5.996094 0.839844 C 6.191406 0.839844 6.378906 0.917969 6.519531 1.058594 C 6.65625 1.195312 6.734375 1.382812 6.734375 1.582031 L 6.734375 8.539062 C 6.734375 8.734375 6.65625 8.921875 6.519531 9.0625 C 6.378906 9.199219 6.191406 9.277344 5.996094 9.277344 L 1.632812 9.277344 C 1.433594 9.277344 1.246094 9.199219 1.109375 9.0625 C 0.96875 8.921875 0.890625 8.734375 0.890625 8.539062 Z M 0.890625 8.539062 " clip-rule="nonzero"/></clipPath><clipPath id="db527493a9"><rect x="0" width="7" y="0" height="10"/></clipPath><mask id="41d613741b"><g filter="url(#f23d50529d)"><rect x="-7.5" width="90" fill="#000000" y="-3.75" height="45" fill-opacity="0.76"/></g></mask><clipPath id="89ba03f27c"><path d="M 2 1 L 15 1 L 15 13 L 2 13 Z M 2 1 " clip-rule="nonzero"/></clipPath><clipPath id="4f21607810"><path d="M 0.214844 9.335938 L 8.589844 0.960938 L 16.964844 9.335938 L 8.589844 17.710938 Z M 0.214844 9.335938 " clip-rule="nonzero"/></clipPath><clipPath id="198df41739"><path d="M 0.214844 9.335938 L 8.589844 0.960938 L 16.964844 9.335938 L 8.589844 17.710938 Z M 0.214844 9.335938 " clip-rule="nonzero"/></clipPath><clipPath id="950d69417d"><path d="M 0.214844 9.335938 L 8.589844 0.960938 L 16.964844 9.335938 L 8.589844 17.710938 Z M 0.214844 9.335938 " clip-rule="nonzero"/></clipPath><clipPath id="725416e453"><rect x="0" width="19" y="0" height="19"/></clipPath></defs><g clip-path="url(#be40e6d802)"><g transform="matrix(1, 0, 0, 1, 0.000000000000000111, 8)"><g clip-path="url(#4af52ce1d7)"><g fill="#0000ff" fill-opacity="1"><g transform="translate(1.34115, 23.317707)"><g><path d="M 5.453125 -21.625 L 5.453125 -16.296875 L 11.0625 -16.296875 L 11.0625 -11.234375 L 5.453125 -11.234375 L 5.453125 -5.328125 C 5.453125 -5.171875 5.539062 -5.09375 5.71875 -5.09375 C 5.90625 -5.09375 6 -5.171875 6 -5.328125 L 6 -10.6875 L 11.0625 -10.6875 L 11.0625 -5.390625 C 11.0625 -4.398438 10.820312 -3.492188 10.34375 -2.671875 C 9.875 -1.859375 9.234375 -1.207031 8.421875 -0.71875 C 7.609375 -0.238281 6.707031 0 5.71875 0 C 4.726562 0 3.820312 -0.234375 3 -0.703125 C 2.1875 -1.179688 1.53125 -1.820312 1.03125 -2.625 C 0.539062 -3.4375 0.296875 -4.335938 0.296875 -5.328125 L 0.296875 -21.625 Z M 5.453125 -21.625 "/></g></g></g><g fill="#0000ff" fill-opacity="1"><g transform="translate(12.48833, 23.317707)"><g><path d="M 9.453125 -14.65625 C 10.117188 -14.007812 10.570312 -13.285156 10.8125 -12.484375 C 11.050781 -11.691406 11.113281 -10.894531 11 -10.09375 C 10.894531 -9.300781 10.617188 -8.566406 10.171875 -7.890625 C 9.734375 -7.210938 9.15625 -6.671875 8.4375 -6.265625 C 7.71875 -5.867188 6.882812 -5.671875 5.9375 -5.671875 L 5.9375 -10.9375 C 5.9375 -11.09375 5.84375 -11.171875 5.65625 -11.171875 C 5.476562 -11.171875 5.390625 -11.09375 5.390625 -10.9375 L 5.390625 -5.390625 C 5.390625 -5.210938 5.484375 -5.125 5.671875 -5.125 L 11.03125 -5.125 L 11.03125 0 L 5.671875 0 C 4.253906 0 2.96875 -0.523438 1.8125 -1.578125 C 0.800781 -2.609375 0.296875 -3.878906 0.296875 -5.390625 L 0.296875 -10.9375 C 0.296875 -11.925781 0.535156 -12.816406 1.015625 -13.609375 C 1.503906 -14.410156 2.160156 -15.046875 2.984375 -15.515625 C 3.804688 -15.992188 4.703125 -16.234375 5.671875 -16.234375 C 6.359375 -16.234375 7.03125 -16.109375 7.6875 -15.859375 C 8.351562 -15.609375 8.941406 -15.207031 9.453125 -14.65625 Z M 9.453125 -14.65625 "/></g></g></g><g fill="#0000ff" fill-opacity="1"><g transform="translate(23.574926, 23.317707)"><g><path d="M 11.125 -16.296875 L 11.125 -12.421875 C 11.125 -11.304688 10.960938 -10.320312 10.640625 -9.46875 C 10.316406 -8.625 9.664062 -8.035156 8.6875 -7.703125 C 9.71875 -7.253906 10.378906 -6.613281 10.671875 -5.78125 C 10.972656 -4.957031 11.125 -4.019531 11.125 -2.96875 L 11.125 0 L 6.0625 0 L 6.0625 -5.21875 C 6.0625 -5.414062 6 -5.53125 5.875 -5.5625 C 5.757812 -5.59375 5.609375 -5.609375 5.421875 -5.609375 L 5.421875 0 L 0.296875 0 L 0.296875 -21.625 L 5.421875 -21.625 L 5.421875 -9.78125 C 5.847656 -9.78125 6.0625 -9.960938 6.0625 -10.328125 L 6.0625 -16.296875 Z M 11.125 -16.296875 "/></g></g></g><g fill="#0000ff" fill-opacity="1"><g transform="translate(34.722106, 23.317707)"><g><path d="M 5.640625 -16.265625 C 6.671875 -16.265625 7.59375 -16.023438 8.40625 -15.546875 C 9.226562 -15.078125 9.875 -14.4375 10.34375 -13.625 C 10.820312 -12.820312 11.0625 -11.925781 11.0625 -10.9375 L 11.0625 -5.15625 C 11.0625 -4.257812 10.84375 -3.414062 10.40625 -2.625 C 9.96875 -1.84375 9.363281 -1.207031 8.59375 -0.71875 C 7.832031 -0.238281 6.945312 0 5.9375 0 L 5.9375 -10.9375 C 5.9375 -11.113281 5.847656 -11.203125 5.671875 -11.203125 C 5.503906 -11.203125 5.421875 -11.113281 5.421875 -10.9375 L 5.421875 5.390625 L 0.296875 5.390625 L 0.296875 -10.875 C 0.296875 -11.863281 0.535156 -12.765625 1.015625 -13.578125 C 1.492188 -14.398438 2.132812 -15.050781 2.9375 -15.53125 C 3.75 -16.019531 4.648438 -16.265625 5.640625 -16.265625 Z M 5.640625 -16.265625 "/></g></g></g><g fill="#0000ff" fill-opacity="1"><g transform="translate(45.869286, 23.317707)"><g><path d="M 1.8125 -1.609375 C 1.144531 -2.273438 0.6875 -3.003906 0.4375 -3.796875 C 0.1875 -4.597656 0.117188 -5.394531 0.234375 -6.1875 C 0.359375 -6.988281 0.640625 -7.722656 1.078125 -8.390625 C 1.523438 -9.054688 2.113281 -9.59375 2.84375 -10 C 3.570312 -10.40625 4.410156 -10.609375 5.359375 -10.609375 L 5.359375 -5.328125 C 5.359375 -5.328125 5.363281 -5.316406 5.375 -5.296875 C 5.382812 -5.273438 5.398438 -5.25 5.421875 -5.21875 C 5.484375 -5.15625 5.554688 -5.125 5.640625 -5.125 C 5.640625 -5.125 5.648438 -5.128906 5.671875 -5.140625 C 5.703125 -5.148438 5.738281 -5.175781 5.78125 -5.21875 C 5.820312 -5.25 5.84375 -5.273438 5.84375 -5.296875 C 5.84375 -5.316406 5.84375 -5.328125 5.84375 -5.328125 L 5.84375 -10.875 C 5.84375 -11.0625 5.773438 -11.15625 5.640625 -11.15625 L 0.25 -11.15625 L 0.25 -16.296875 L 5.640625 -16.296875 C 6.648438 -16.296875 7.550781 -16.050781 8.34375 -15.5625 C 9.144531 -15.082031 9.78125 -14.429688 10.25 -13.609375 C 10.726562 -12.796875 10.96875 -11.882812 10.96875 -10.875 L 10.96875 -5.328125 C 10.96875 -4.359375 10.722656 -3.46875 10.234375 -2.65625 C 9.753906 -1.851562 9.109375 -1.207031 8.296875 -0.71875 C 7.492188 -0.238281 6.609375 0 5.640625 0 C 4.953125 0 4.273438 -0.132812 3.609375 -0.40625 C 2.941406 -0.675781 2.34375 -1.078125 1.8125 -1.609375 Z M 1.8125 -1.609375 "/></g></g></g><g fill="#0000ff" fill-opacity="1"><g transform="translate(56.925594, 23.317707)"><g><path d="M 0.296875 -16.78125 L 0.296875 -21.625 L 5.421875 -21.625 L 5.421875 -16.78125 Z M 0.296875 0 L 0.296875 -16.234375 L 5.421875 -16.234375 L 5.421875 0 Z M 0.296875 0 "/></g></g></g><g clip-path="url(#49a46ea5a5)"><g fill="#0000ff" fill-opacity="1"><g transform="translate(62.438589, 23.317707)"><g><path d="M 5.75 -16.359375 C 6.738281 -16.359375 7.632812 -16.109375 8.4375 -15.609375 C 9.238281 -15.117188 9.875 -14.460938 10.34375 -13.640625 C 10.820312 -12.828125 11.0625 -11.925781 11.0625 -10.9375 L 11.0625 -8.515625 L 6 -8.515625 L 6 -10.9375 C 6 -11.132812 5.898438 -11.234375 5.703125 -11.234375 C 5.515625 -11.234375 5.421875 -11.164062 5.421875 -11.03125 L 5.421875 0 L 0.296875 0 L 0.296875 -10.9375 C 0.296875 -11.925781 0.535156 -12.828125 1.015625 -13.640625 C 1.503906 -14.460938 2.160156 -15.117188 2.984375 -15.609375 C 3.816406 -16.109375 4.738281 -16.359375 5.75 -16.359375 Z M 5.75 -16.359375 "/></g></g></g></g></g></g></g><g clip-path="url(#5a476e356e)"><g clip-path="url(#348c6c04f4)"><g transform="matrix(1, 0, 0, 1, 54, 7)"><g clip-path="url(#2e46d555fb)"><g clip-path="url(#208cf94bb9)"><g clip-path="url(#aab2457347)"><path fill="#ffffff" d="M 0.707031 0.585938 L 11.8125 0.585938 L 11.8125 7.914062 L 0.707031 7.914062 Z M 0.707031 0.585938 " fill-opacity="1" fill-rule="nonzero"/></g></g></g></g></g></g><g clip-path="url(#57d6547319)"><g clip-path="url(#b0a85095ef)"><g transform="matrix(1, 0, 0, 1, 56, 5)"><g clip-path="url(#db527493a9)"><g clip-path="url(#1388551189)"><g clip-path="url(#72dfa0858d)"><path fill="#0000ff" d="M 0.890625 9.277344 L 0.890625 0.832031 L 6.734375 0.832031 L 6.734375 9.277344 Z M 0.890625 9.277344 " fill-opacity="1" fill-rule="nonzero"/></g></g></g></g></g></g><g mask="url(#41d613741b)"><g transform="matrix(1, 0, 0, 1, 51, -0.000000000000001471)"><g clip-path="url(#725416e453)"><g clip-path="url(#89ba03f27c)"><g clip-path="url(#4f21607810)"><g clip-path="url(#198df41739)"><g clip-path="url(#950d69417d)"><path fill="#28f5ff" d="M 7.945312 1.644531 C 8.089844 1.394531 8.304688 1.273438 8.589844 1.273438 C 8.875 1.273438 9.089844 1.394531 9.234375 1.644531 L 14.59375 10.925781 C 14.738281 11.175781 14.738281 11.421875 14.59375 11.667969 C 14.449219 11.917969 14.234375 12.042969 13.949219 12.042969 L 3.230469 12.042969 C 2.945312 12.042969 2.730469 11.917969 2.585938 11.667969 C 2.445312 11.421875 2.445312 11.175781 2.585938 10.925781 Z M 7.945312 1.644531 " fill-opacity="1" fill-rule="nonzero"/></g></g></g></g></g></g></g></svg>